<?xml version="1.0" encoding="UTF-8"?>
<svg id="Layer_1" xmlns="http://www.w3.org/2000/svg" viewBox="0 0 650.25 711.12">
  <defs>
    <style>
      .cls-1 {
        fill: #c8ce52;
        fill-rule: evenodd;
      }

      .cls-2 {
        fill: #eef251;
      }

      .cls-3 {
        fill: #bfbf40;
      }

      .cls-4 {
        fill: #b9b661;
      }

      .cls-5 {
        fill: none;
        stroke: #000;
        stroke-miterlimit: 10;
        stroke-width: 3px;
      }

      .cls-6 {
        fill: #e0e053;
      }
    </style>
  </defs>
  <g>
    <path class="cls-5" d="M306.5,709.5c18.65-1.44,44.53-4.21,75-10,2.63-.5,52.84-10.15,82-21,66.05-24.57,104.19-85.02,125-118,76.32-120.97,60.04-248.09,56-275-13.84-92.26-55.58-152.25-64.46-164.65C534.79,57.69,462.68,1.82,408.5,1.5c-4.81-.03-20.95.3-38,1-31.38,1.28-56.75,3.43-73,5l9,702Z"/>
    <path class="cls-1" d="M306.5,709.5c18.65-1.44,44.53-4.21,75-10,2.63-.5,52.84-10.15,82-21,66.05-24.57,104.19-85.02,125-118,76.32-120.97,60.04-248.09,56-275-13.84-92.26-55.58-152.25-64.46-164.65C534.79,57.69,462.68,1.82,408.5,1.5c-4.81-.03-20.95.3-38,1-31.38,1.28-56.75,3.43-73,5l9,702Z"/>
  </g>
  <g>
    <path class="cls-2" d="M298,708.5c-79.45,0-154.15-36.4-210.34-102.48C31.46,539.91.5,452.01.5,358.5S31.46,177.09,87.66,110.98C143.85,44.9,218.55,8.5,298,8.5s154.15,36.4,210.34,102.48c56.21,66.11,87.16,154.01,87.16,247.52s-30.96,181.41-87.16,247.52c-56.19,66.09-130.89,102.48-210.34,102.48Z"/>
    <path d="M298,9c40.07,0,78.95,9.23,115.55,27.44,35.36,17.59,67.13,42.78,94.41,74.87,27.29,32.1,48.72,69.48,63.68,111.1,15.5,43.1,23.36,88.89,23.36,136.09s-7.86,92.99-23.36,136.09c-14.97,41.62-36.4,79-63.68,111.1-27.28,32.09-59.04,57.27-94.41,74.87-36.6,18.21-75.48,27.44-115.55,27.44s-78.95-9.23-115.55-27.44c-35.36-17.59-67.13-42.78-94.41-74.87-27.29-32.1-48.72-69.48-63.68-111.1C8.86,451.49,1,405.7,1,358.5s7.86-92.99,23.36-136.09c14.97-41.62,36.4-79,63.68-111.1,27.28-32.09,59.04-57.27,94.41-74.87,36.6-18.21,75.48-27.44,115.55-27.44M298,8C133.42,8,0,164.93,0,358.5s133.42,350.5,298,350.5,298-156.92,298-350.5S462.58,8,298,8h0Z"/>
  </g>
  <g>
    <path class="cls-6" d="M294.64,618.5c-124.29,0-225.41-119.33-225.41-266S170.35,86.5,294.64,86.5s225.41,119.33,225.41,266-101.12,266-225.41,266Z"/>
    <path class="cls-3" d="M294.64,91.5c29.55,0,58.22,6.81,85.23,20.25,26.22,13.04,49.79,31.75,70.07,55.6,20.38,23.97,36.39,51.91,47.59,83.05,11.62,32.32,17.52,66.67,17.52,102.1s-5.89,69.78-17.52,102.1c-11.2,31.14-27.21,59.08-47.59,83.05-20.28,23.85-43.85,42.56-70.07,55.6-27.01,13.44-55.69,20.25-85.23,20.25s-58.22-6.81-85.23-20.25c-26.22-13.04-49.79-31.75-70.07-55.6-20.38-23.97-36.39-51.91-47.59-83.05-11.62-32.32-17.52-66.67-17.52-102.1s5.89-69.78,17.52-102.1c11.2-31.14,27.21-59.08,47.59-83.05,20.28-23.85,43.85-42.56,70.07-55.6,27.01-13.44,55.69-20.25,85.23-20.25M294.64,81.5c-127.25,0-230.41,121.33-230.41,271s103.16,271,230.41,271,230.41-121.33,230.41-271S421.89,81.5,294.64,81.5h0Z"/>
  </g>
  <g>
    <polygon class="cls-3" points="289.5 48.73 285.48 51.65 287.02 46.92 283 44 287.96 44 289.5 39.28 291.04 44 296 44 291.98 46.92 293.52 51.65 289.5 48.73"/>
    <polygon class="cls-4" points="289.5 23.1 284.33 39 267.61 39 281.14 48.83 275.97 64.74 289.5 54.91 303.03 64.74 297.86 48.83 311.39 39 294.67 39 289.5 23.1 289.5 23.1"/>
  </g>
  <g>
    <polygon class="cls-3" points="375.07 64.63 370.41 66.35 373.17 62.22 370.09 58.32 374.87 59.66 377.63 55.53 377.83 60.5 382.61 61.84 377.95 63.57 378.15 68.53 375.07 64.63"/>
    <polygon class="cls-4" points="382.02 39.96 372.73 53.87 356.64 49.33 366.99 62.46 357.71 76.37 373.39 70.58 383.75 83.71 383.09 67 398.78 61.2 382.68 56.67 382.02 39.96 382.02 39.96"/>
  </g>
  <g>
    <polygon class="cls-3" points="450.93 109.96 446.02 109.18 450.45 106.93 449.67 102.02 453.19 105.54 457.61 103.28 455.36 107.71 458.87 111.22 453.96 110.44 451.71 114.87 450.93 109.96"/>
    <polygon class="cls-4" points="442.33 87.6 444.94 104.12 430.04 111.72 446.56 114.33 449.18 130.85 456.77 115.95 473.29 118.57 461.46 106.74 469.06 91.84 454.15 99.43 442.33 87.6 442.33 87.6"/>
  </g>
  <g>
    <polygon class="cls-3" points="508.66 180.28 504.25 178 509.16 177.25 509.97 172.35 512.2 176.8 517.11 176.05 513.57 179.54 515.8 183.99 511.38 181.7 507.85 185.19 508.66 180.28"/>
    <polygon class="cls-4" points="507.56 156.35 504.82 172.85 488.29 175.35 503.13 183.05 500.4 199.55 512.31 187.81 527.15 195.51 519.67 180.55 531.58 168.81 515.04 171.31 507.56 156.35 507.56 156.35"/>
  </g>
  <g>
    <polygon class="cls-3" points="538.86 256.81 534.7 259.52 536.47 254.88 532.61 251.76 537.57 252.01 539.34 247.37 540.64 252.16 545.6 252.42 541.44 255.13 542.73 259.93 538.86 256.81"/>
    <polygon class="cls-4" points="540.16 231.21 534.19 246.83 517.49 245.98 530.51 256.49 524.54 272.11 538.55 262.98 551.56 273.48 547.21 257.33 561.22 248.2 544.52 247.35 540.16 231.21 540.16 231.21"/>
  </g>
  <g>
    <polygon class="cls-3" points="554.51 350.42 549.91 352.3 552.53 348.08 549.32 344.28 554.15 345.47 556.77 341.25 557.13 346.2 561.96 347.39 557.36 349.27 557.72 354.22 554.51 350.42"/>
    <polygon class="cls-4" points="560.64 325.54 551.82 339.75 535.58 335.75 546.37 348.53 537.55 362.74 553.03 356.43 563.82 369.21 562.61 352.53 578.09 346.21 561.85 342.22 560.64 325.54 560.64 325.54"/>
  </g>
  <g>
    <polygon class="cls-3" points="538.44 449.12 533.48 449.31 537.38 446.24 535.66 441.58 539.79 444.34 543.7 441.26 542.34 446.05 546.47 448.81 541.51 449 540.16 453.78 538.44 449.12"/>
    <polygon class="cls-4" points="552.69 427.81 539.55 438.16 525.65 428.87 531.43 444.56 518.29 454.91 535.01 454.26 540.79 469.95 545.33 453.86 562.05 453.21 548.14 443.91 552.69 427.81 552.69 427.81"/>
  </g>
  <g>
    <polygon class="cls-3" points="507.02 534.09 502.19 532.9 506.79 531.02 506.43 526.07 509.64 529.86 514.24 527.99 511.62 532.21 514.83 536.01 510 534.82 507.38 539.04 507.02 534.09"/>
    <polygon class="cls-4" points="500.33 511.08 501.54 527.76 486.06 534.08 502.3 538.07 503.51 554.75 512.33 540.54 528.57 544.54 517.78 531.76 526.6 517.55 511.12 523.86 500.33 511.08 500.33 511.08"/>
  </g>
  <g>
    <polygon class="cls-3" points="451.7 603.61 447.25 601.41 452.15 600.57 452.87 595.66 455.17 600.06 460.07 599.23 456.6 602.78 458.91 607.18 454.45 604.98 450.98 608.53 451.7 603.61"/>
    <polygon class="cls-4" points="450.16 579.71 447.73 596.25 431.24 599.05 446.23 606.48 443.79 623.03 455.49 611.07 470.47 618.5 462.71 603.68 474.41 591.72 457.92 594.52 450.16 579.71 450.16 579.71"/>
  </g>
  <g>
    <polygon class="cls-3" points="366.5 651.84 361.61 652.67 365.08 649.12 362.77 644.71 367.23 646.92 370.7 643.37 369.98 648.28 374.43 650.49 369.53 651.32 368.81 656.24 366.5 651.84"/>
    <polygon class="cls-4" points="377.89 628.87 366.19 640.83 351.21 633.4 358.97 648.22 347.27 660.18 363.76 657.37 371.52 672.19 373.95 655.64 390.44 652.84 375.45 645.42 377.89 628.87 377.89 628.87"/>
  </g>
  <g>
    <polygon class="cls-3" points="267.93 660.45 262.98 659.96 267.27 657.45 266.21 652.6 269.92 655.9 274.21 653.39 272.22 657.94 275.93 661.24 270.98 660.75 268.99 665.3 267.93 660.45"/>
    <polygon class="cls-4" points="258.03 638.63 261.61 654.97 247.18 663.42 263.82 665.07 267.4 681.4 274.11 666.08 290.75 667.73 278.25 656.62 284.96 641.29 270.53 649.75 258.03 638.63 258.03 638.63"/>
  </g>
  <g>
    <polygon class="cls-3" points="180.46 636.07 176.79 633 181.33 633 182.04 630.48 182.76 633 187.3 633 183.62 636.07 184.6 639.53 182.04 637.39 179.48 639.53 180.46 636.07"/>
    <polygon class="cls-4" points="182.04 612.1 177.55 628 163 628 174.77 637.83 170.27 653.74 182.04 643.91 193.81 653.74 189.32 637.83 201.09 628 186.54 628 182.04 612.1 182.04 612.1"/>
  </g>
  <g>
    <polygon class="cls-3" points="125.67 593.24 123.43 594.35 124.84 591.94 122.32 587.95 126.49 589.12 127.13 588.03 127.11 589.3 131.28 590.47 127.06 592.56 127.01 595.35 125.67 593.24"/>
    <polygon class="cls-4" points="132.44 569.08 124.13 583.27 111.11 579.62 118.99 592.04 110.67 606.23 123.86 599.71 131.74 612.13 132.01 595.69 145.19 589.17 132.17 585.52 132.44 569.08 132.44 569.08"/>
  </g>
  <g>
    <polygon class="cls-3" points="78.23 536.53 83.63 538.04 80.05 540.42 78.23 536.53"/>
    <polygon class="cls-4" points="86.57 517.16 79.16 531.6 69.07 528.77 74.58 540.52 67.17 554.96 77.98 547.79 83.5 559.54 84.67 543.35 95.49 536.17 85.39 533.34 86.57 517.16 86.57 517.16"/>
  </g>
  <g>
    <polygon class="cls-3" points="51.79 474.94 55.24 476.31 57.31 477.13 53.31 479.15 51.79 474.94"/>
    <polygon class="cls-4" points="62.24 456.6 53.3 470.16 43.31 466.21 47.77 478.55 38.83 492.11 50.53 486.17 54.99 498.51 57.76 482.5 69.46 476.56 59.47 472.61 62.24 456.6 62.24 456.6"/>
  </g>
  <g>
    <polygon class="cls-3" points="36.41 405.79 33.65 404.62 36.48 403.94 36.58 401.5 37.91 403.6 41.07 402.84 39.04 405.37 40.37 407.47 38.12 406.51 36.3 408.79 36.41 405.79"/>
    <polygon class="cls-4" points="32.2 385.26 31.63 399.96 17.74 403.3 31.28 409.04 30.72 423.74 39.65 412.6 53.19 418.35 45.17 405.71 54.1 394.56 40.22 397.9 32.2 385.26 32.2 385.26"/>
  </g>
  <g>
    <polygon class="cls-3" points="29.96 329.88 30.52 329.66 30.33 330 29.96 329.88"/>
    <polygon class="cls-4" points="24.36 314.12 25.34 326.27 15.17 330.1 25.95 333.79 26.93 345.94 32.61 336.07 43.4 339.75 36.12 329.96 41.8 320.08 31.63 323.91 24.36 314.12 24.36 314.12"/>
  </g>
  <g>
    <polygon class="cls-3" points="42.69 256 42.82 256 42.76 256.05 42.69 256"/>
    <polygon class="cls-4" points="42.76 239.64 39.27 251 28 251 37.12 258.02 33.64 269.38 42.76 262.36 51.88 269.38 48.39 258.02 57.51 251 46.24 251 42.76 239.64 42.76 239.64"/>
  </g>
  <g>
    <polygon class="cls-3" points="75.98 175.47 75.39 187.2 86.01 191.11 75.02 194.46 74.43 206.2 68.23 196.53 57.25 199.88 64.4 190.55 58.2 180.88 68.82 184.79 75.98 175.47"/>
    <polygon class="cls-4" points="75.98 175.47 68.82 184.79 58.2 180.88 64.4 190.55 57.25 199.88 68.23 196.53 74.43 206.2 75.02 194.46 86.01 191.11 75.39 187.2 75.98 175.47 75.98 175.47"/>
  </g>
  <g>
    <polygon class="cls-3" points="110.37 133.5 109.34 133.31 111.59 132.17 110.65 134.51 110.37 133.5"/>
    <polygon class="cls-4" points="100.93 117.99 104.3 130.27 93.86 135.57 106.38 137.86 109.75 150.13 114.13 139.27 126.65 141.55 116.83 132.55 121.2 121.68 110.76 126.99 100.93 117.99 100.93 117.99"/>
  </g>
  <g>
    <polygon class="cls-3" points="163.47 84.94 160.85 84.83 163.12 83.35 162.42 80.16 164.87 82.21 166.8 80.96 165.9 83.07 168.35 85.13 165.09 85 164.03 87.5 163.47 84.94"/>
    <polygon class="cls-4" points="154.39 66.92 157.5 81.05 144.96 89.22 159.42 89.78 162.52 103.91 168.35 90.13 182.8 90.69 171.95 81.61 177.78 67.83 165.24 76 154.39 66.92 154.39 66.92"/>
  </g>
  <g>
    <polygon class="cls-3" points="225.24 59.18 222.35 58.42 225.44 57.35 225.96 52.62 228.48 56.29 230.43 55.62 229.1 57.19 231.62 60.86 227.02 59.65 224.91 62.14 225.24 59.18"/>
    <polygon class="cls-4" points="222.45 38.69 220.81 53.67 205.23 59.08 219.8 62.92 218.16 77.89 228.8 65.29 243.37 69.13 235.38 57.5 246.02 44.9 230.44 50.32 222.45 38.69 222.45 38.69"/>
  </g>
</svg>